HIERARCHY
ROOT Hips
{
  OFFSET 40.9192 92.6879 18.85
  CHANNELS 6 Xposition Yposition Zposition Zrotation Xrotation Yrotation
  JOINT LeftUpLeg
  {
    OFFSET 8.64259 1.95398 -2.38835
    CHANNELS 3 Zrotation Xrotation Yrotation
    JOINT LeftLeg
    {
      OFFSET 43.7702 0 0
      CHANNELS 3 Zrotation Xrotation Yrotation
      JOINT LeftFoot
      {
        OFFSET 40.6238 0 0
        CHANNELS 3 Zrotation Xrotation Yrotation
        JOINT LeftToeBase
        {
          OFFSET 12.7242 0 0
          CHANNELS 3 Zrotation Xrotation Yrotation
          End Site
          {
            OFFSET 0 0 0
          }
        }
      }
    }
  }
  JOINT RightUpLeg
  {
    OFFSET -8.2249 1.95398 -2.59336
    CHANNELS 3 Zrotation Xrotation Yrotation
    JOINT RightLeg
    {
      OFFSET 43.5653 0 0
      CHANNELS 3 Zrotation Xrotation Yrotation
      JOINT RightFoot
      {
        OFFSET 40.6238 0 0
        CHANNELS 3 Zrotation Xrotation Yrotation
        JOINT RightToeBase
        {
          OFFSET 12.7242 0 0
          CHANNELS 3 Zrotation Xrotation Yrotation
          End Site
          {
            OFFSET 0 0 0
          }
        }
      }
    }
  }
  JOINT Spine
  {
    OFFSET 0.165834 0.87714 6.61349
    CHANNELS 3 Zrotation Xrotation Yrotation
    JOINT Spine1
    {
      OFFSET 7.38963 1.71661e-005 0
      CHANNELS 3 Zrotation Xrotation Yrotation
      JOINT Spine2
      {
        OFFSET 11.9445 1.14441e-005 0
        CHANNELS 3 Zrotation Xrotation Yrotation
        JOINT Spine3
        {
          OFFSET 14.7254 4.19617e-005 0
          CHANNELS 3 Zrotation Xrotation Yrotation
          JOINT Spine4
          {
            OFFSET 10.9679 0 0
            CHANNELS 3 Zrotation Xrotation Yrotation
            JOINT RightShoulder
            {
              OFFSET 2.46616 -1.6653 3.69651
              CHANNELS 3 Zrotation Xrotation Yrotation
              JOINT RightArm
              {
                OFFSET 13.0012 0 0
                CHANNELS 3 Zrotation Xrotation Yrotation
                JOINT RightForeArm
                {
                  OFFSET 28.7848 1.52588e-005 0
                  CHANNELS 3 Zrotation Xrotation Yrotation
                  JOINT RightHand
                  {
                    OFFSET 26.5688 1.52588e-005 0
                    CHANNELS 3 Zrotation Xrotation Yrotation
                    End Site
                    {
                      OFFSET 0 0 0
                    }
                  }
                }
              }
            }
            JOINT LeftShoulder
            {
              OFFSET 2.38034 -1.29275 -3.7523
              CHANNELS 3 Zrotation Xrotation Yrotation
              JOINT LeftArm
              {
                OFFSET 16.3182 6.10351e-005 0
                CHANNELS 3 Zrotation Xrotation Yrotation
                JOINT LeftForeArm
                {
                  OFFSET 27.0901 0 0
                  CHANNELS 3 Zrotation Xrotation Yrotation
                  JOINT LeftHand
                  {
                    OFFSET 24.5451 1.52588e-005 0
                    CHANNELS 3 Zrotation Xrotation Yrotation
                    End Site
                    {
                      OFFSET 0 0 0
                    }
                  }
                }
              }
            }
            JOINT Neck
            {
              OFFSET 5.0226 -0.0266342 0
              CHANNELS 3 Zrotation Xrotation Yrotation
              JOINT Head
              {
                OFFSET 6.69363 2.86102e-005 0
                CHANNELS 3 Zrotation Xrotation Yrotation
                End Site
                {
                  OFFSET 0 0 0
                }
              }
            }
          }
        }
      }
    }
  }
}
MOTION
Frames:	14
Frame Time:	0.0416667
4.4524 90.9213 -139.122 -115.758 -82.8194 -119.278 -170.515 9.37344 107.573 -23.1653 21.7694 4.92745 53.0401 -3.16586 -2.26217 41.9213 11.1246 9.26336 177.575 18.0159 77.1836 -42.6493 -4.98714 -9.78986 70.6203 -6.01313 -3.04494 44.7713 0.37765 -5.59698 0.084924 7.69842 -89.7423 11.4762 0.289448 0.483928 -0.194767 0.310468 0.470708 -22.7293 0.130619 0.548549 -2.71663 0.130628 0.548541 92.327 -48.0556 -97.6259 22.3715 -4.06871 5.97517 -5.09208 -22.5444 -38.9248 -7.30837 -0.975845 6.001 -93.6877 -49.3386 73.0612 -23.957 6.89115 0.666505 3.85319 6.57482 -33.4295 18.4164 1.72674 5.5348 7.13242 1.1614 -0.282068 0.891057 1.22888 0.749199 
7.19281 90.7351 -139.016 -124.442 -83.3882 -127.158 -170.48 9.83575 107.128 -25.4258 22.9914 4.58127 56.135 -0.498712 0.657942 45.4874 14.0142 6.8551 176.617 16.9827 76.1265 -41.1505 -5.38889 -9.88392 68.3303 -4.93591 -2.57829 46.7151 0.313066 -6.30855 0.0936391 7.77409 -89.8219 11.3252 0.269396 0.327841 -0.345753 0.283567 0.315663 -22.8807 0.158418 0.393647 -2.86802 0.158409 0.393646 92.3393 -48.1011 -97.5978 21.8541 -3.3288 6.18861 -4.6357 -21.6855 -38.0897 -7.0391 -0.934082 5.83995 -93.6343 -48.9878 73.0431 -24.0615 6.97632 -0.152368 5.83707 9.69806 -33.5248 15.7207 1.62306 6.36175 6.98321 0.628472 -0.620837 1.18161 0.768816 0.817508 
10.0282 90.7442 -138.973 -127.995 -83.2425 -130.461 -170.128 10.2117 105.857 -27.5393 22.5876 3.73974 58.9027 1.81043 3.88565 46.4422 14.4682 4.4534 176.573 16.026 74.9333 -39.0637 -6.22764 -10.7626 65.7202 -4.01517 -2.15937 46.8789 0.336087 -6.0505 0.169323 7.81838 -89.8693 11.2367 0.397821 0.220903 -0.434169 0.407158 0.203169 -22.9695 0.313036 0.330249 -2.95687 0.313038 0.330244 92.3847 -48.1364 -97.5189 21.4318 -2.55237 6.78316 -5.30651 -21.7186 -38.0509 -7.21557 -0.983224 6.30752 -93.8121 -49.1276 72.817 -24.0399 7.77615 -0.684518 5.91309 10.3977 -33.48 14.7176 1.58203 6.72651 6.75659 0.304565 -0.4427 0.885657 0.419177 0.867151 
12.7983 91.1035 -139.156 -138.369 -83.4971 -140.911 -170.712 10.8023 104.158 -30.0651 22.3722 3.52078 60.5798 3.41121 4.68623 45.7145 13.7915 3.98495 175.969 14.69 73.3787 -36.9396 -7.97203 -11.6702 62.3828 -2.66958 -1.44222 46.3202 0.167761 -7.95938 0.150865 7.88248 -89.8654 11.1085 0.362826 0.232882 -0.562366 0.372732 0.216679 -23.0976 0.276063 0.331165 -3.08498 0.276059 0.33115 92.2903 -48.6168 -97.573 21.1562 -1.35504 7.30256 -6.12153 -21.3894 -37.7117 -7.07734 -0.945442 5.90968 -94.2273 -49.126 72.1969 -23.5302 9.29463 -1.12111 4.92947 10.3037 -32.994 14.9967 1.62578 6.83154 6.21492 -0.217437 -0.305675 0.990557 -0.118422 0.867305 
15.4797 91.5871 -139.366 -147.867 -83.6727 -150.692 -171.412 11.5097 102.309 -32.2511 23.0919 3.19994 60.7107 3.99278 5.57641 45.257 13.4488 4.2582 175.652 13.9755 71.9817 -35.398 -8.65758 -12.768 58.6553 -0.955393 -0.380068 44.8668 0.132676 -8.78712 0.157831 7.96259 -89.8199 10.9481 0.397591 0.320563 -0.722828 0.411309 0.30275 -23.2579 0.282864 0.425241 -3.24529 0.282861 0.425226 92.7352 -49.0478 -96.7956 21.5752 -0.248565 7.14902 -6.52675 -20.2633 -37.2528 -6.8808 -0.89182 5.48124 -94.4923 -48.9256 71.7436 -22.8471 10.669 -1.83541 4.43228 10.7971 -32.8112 15.1218 1.64913 6.90218 5.81507 -0.688353 -0.114619 1.20679 -0.64751 0.223677 
18.1244 92.2124 -139.446 -152.325 -83.7973 -154.961 -171.356 11.7838 101.027 -32.889 22.2298 2.57058 61.5801 4.8365 5.33291 44.3479 12.5108 2.79835 175.543 13.5802 71.3158 -33.5308 -8.48925 -13.4916 55.127 0.57712 0.701332 40.166 0.232801 -9.56104 0.189841 7.97512 -89.8107 10.9229 0.465582 0.332484 -0.748036 0.479752 0.311671 -23.2833 0.344127 0.457041 -3.27061 0.344121 0.45703 93.3507 -48.8056 -95.8775 23.3293 0.707921 7.05685 -7.6737 -20.1619 -37.4389 -6.89405 -0.930983 6.00895 -94.4199 -48.3665 71.6876 -22.621 11.9503 -2.00663 4.046 11.0787 -32.8382 14.5367 1.52436 6.46255 5.31178 -0.969557 0.119359 1.00296 -0.966494 0.150603 
20.7814 92.9901 -139.364 -148.637 -84.179 -150.757 -171.237 11.529 99.849 -31.9493 21.6947 2.04173 62.4916 5.6911 6.03059 42.9761 11.3029 1.9143 175.233 13.7685 71.1892 -30.7908 -6.93301 -13.3517 52.6979 1.49827 1.4362 31.4614 0.496828 -8.78405 0.284216 7.91787 -89.8761 11.0377 0.623297 0.186747 -0.633145 0.630912 0.159129 -23.1691 0.53835 0.365449 -3.15649 0.538347 0.36544 93.7013 -48.1399 -95.4417 25.2929 1.57599 7.38473 -8.65699 -18.5075 -38.4209 -5.38778 -0.777456 5.59138 -94.6138 -48.629 71.4746 -21.8935 12.7756 -1.83952 3.58511 10.7968 -33.0499 14.2467 1.35082 5.47569 5.26775 -1.13437 0.902129 0.881221 -1.26666 -0.126458 
23.103 93.6317 -139.391 -139.67 -84.2341 -141.569 -171.165 11.1872 98.6015 -30.7795 20.4677 1.51715 62.9172 6.0293 6.10058 42.0933 10.5996 1.97747 175.069 14.6635 71.1899 -29.7059 -6.40179 -12.8669 51.9153 1.79736 1.68713 27.0004 0.640748 -9.1206 0.383706 7.84084 -89.8781 11.1918 0.820391 0.16209 -0.478906 0.826737 0.125815 -23.0157 0.733746 0.401173 -3.00307 0.733744 0.401165 93.6292 -47.6422 -95.6418 26.8015 1.63392 7.78017 -8.95446 -17.21 -39.6142 -3.95887 -0.625983 4.86639 -94.4253 -48.6245 71.7553 -21.7218 13.0038 -0.929067 4.24288 11.1762 -34.2368 13.0765 1.22834 5.32863 5.29279 -1.23298 1.85281 0.556549 -1.5502 -0.874888 
24.9265 94.188 -139.501 -135.998 -84.2737 -138.079 -171.369 10.6226 97.2445 -29.4942 19.2821 1.18349 63.0253 6.08993 5.57278 41.1714 9.84442 1.80129 175.443 14.9668 71.7554 -30.576 -6.9433 -12.9754 53.926 1.21625 1.18393 27.8793 0.601344 -8.93443 0.377465 7.80425 -89.7991 11.2644 0.844777 0.316314 -0.406314 0.857884 0.278804 -22.9428 0.710657 0.555589 -2.93019 0.71065 0.55557 93.3509 -47.9725 -96.0246 27.1499 1.07624 7.68289 -9.33836 -17.2033 -41.1129 -2.14445 -0.496467 4.56001 -93.7969 -48.6565 72.7067 -21.2917 12.8654 0.0845509 4.76283 11.112 -35.2805 11.8091 1.14993 5.57857 5.65389 -1.16752 2.30747 0.409034 -1.59396 -1.53508 
26.4422 94.6909 -139.706 -135.463 -83.9051 -137.35 -171.392 9.87951 96.5621 -28.4786 19.1488 0.921245 62.9773 5.80639 5.73095 40.2493 9.08202 1.45073 176.432 14.5385 73.2504 -31.9264 -6.47206 -12.9085 56.7634 -0.0322594 0.242772 29.2591 0.523584 -8.30309 0.394391 7.84498 -89.7577 11.1824 0.89763 0.394347 -0.48826 0.914115 0.354442 -23.0247 0.737616 0.645891 -3.01209 0.737618 0.645892 93.3657 -48.0347 -95.9904 27.6162 0.0787088 7.00816 -9.14241 -18.0479 -41.7775 -2.06211 -0.470996 3.27992 -93.5943 -48.5515 72.9811 -20.9873 12.2588 1.03663 4.96156 10.727 -35.68 11.9466 1.12875 5.31393 6.4149 -1.11961 2.14524 -0.164177 -1.52259 -1.45076 
27.9823 95.0445 -139.885 -134.433 -83.7555 -135.505 -171.546 9.77199 96.4045 -28.2878 18.3457 0.936375 63.7686 5.92556 5.00336 39.0568 8.1328 1.53126 177.266 14.1394 75.4315 -33.3033 -5.53021 -12.0105 59.2208 -1.26351 -0.59687 32.8729 0.431304 -7.99708 0.419563 7.85856 -89.8009 11.1557 0.927608 0.305711 -0.514974 0.940161 0.264583 -23.0519 0.79284 0.570374 -3.03926 0.792839 0.570373 93.5275 -48.1491 -95.7147 27.8654 -1.04354 6.09512 -9.9629 -19.3714 -43.1969 -1.07409 -0.4486 3.50087 -93.7105 -48.3426 72.7472 -20.719 12.1833 2.12892 3.6738 8.79948 -35.7778 13.9415 1.25353 4.98667 6.66823 -1.06702 2.20909 0.137822 -1.49171 -1.49441 
29.2486 95.3958 -139.997 -133.876 -84.2918 -134.452 -171.88 10.0302 96.0057 -27.8005 17.9422 0.981191 64.0923 5.74128 4.67703 38 7.26622 0.867037 177.505 14.0468 77.5304 -34.404 -3.92833 -10.6239 62.0476 -2.54806 -1.39238 35.1106 0.398406 -9.40765 0.377915 7.81097 -89.7738 11.2506 0.857408 0.365511 -0.42006 0.872674 0.32741 -22.9565 0.707914 0.606302 -2.94381 0.707924 0.606313 93.6205 -48.6772 -95.4768 27.7648 -1.94481 5.3393 -10.9493 -20.8201 -44.8715 0.438339 -0.399703 3.7362 -93.4265 -47.4586 72.9269 -21.0483 11.4278 2.65397 4.06188 9.16944 -35.3175 14.2651 1.33619 5.38376 6.90964 -1.17497 1.78014 0.00186362 -1.52629 -1.49327 
30.3653 95.734 -140.217 -136.917 -84.5713 -137.036 -171.943 9.92347 95.8298 -27.1968 18.1524 0.905488 64.1494 5.38362 4.15446 37.1917 6.62695 0.996321 177.34 13.7373 79.836 -35.5602 -2.55993 -9.06176 64.4696 -3.56357 -1.95873 36.689 0.34792 -10.0233 0.329619 7.83077 -89.7821 11.2112 0.75743 0.35936 -0.459591 0.772498 0.32567 -22.9956 0.6144 0.570382 -2.98297 0.614406 0.570392 93.6887 -48.4686 -95.4054 28.249 -2.57768 4.6235 -14.1577 -23.3076 -46.6665 0.349651 -0.467052 2.60561 -93.6373 -47.05 72.4879 -20.9433 10.5052 3.01643 4.74625 9.87394 -34.8232 13.4421 1.30964 5.68119 7.05977 -1.09763 1.81776 0.415247 -1.4688 -1.58252 
31.4072 95.9546 -140.447 -140.777 -84.9042 -140.741 -172.103 9.75011 95.3356 -26.4792 17.7148 0.817672 64.3103 5.31553 4.0651 36.6151 6.15197 -0.671784 176.844 13.6311 81.9615 -36.6007 -0.461656 -7.39569 66.5616 -4.31282 -2.33177 37.7568 0.308177 -9.95355 0.271649 7.79528 -89.7248 11.2818 0.668798 0.481513 -0.389099 0.689344 0.451608 -22.9244 0.493167 0.660262 -2.91173 0.493161 0.660245 93.5587 -48.8365 -95.5466 28.6024 -3.04535 4.90245 -14.4281 -21.8745 -47.6 2.22651 -0.372279 2.90865 -93.3533 -46.3946 72.7338 -20.5698 10.7343 3.34984 4.68526 10.3794 -34.1218 12.79 1.35568 6.46399 6.77598 -1.10714 1.1079 0.686027 -1.34118 -1.27976 
